<svg xmlns="http://www.w3.org/2000/svg" width="64" height="64" viewBox="0 0 64 64">
    <rect width="64" height="64" fill="#f0f0f0"/>
    <g fill="#333333" transform="translate(0, 0)">
        <svg xmlns="http://www.w3.org/2000/svg" width="64" height="64" fill="currentColor" viewBox="0 0 16 16"><path d="M8 0a8 8 0 1 0 0 16A8 8 0 0 0 8 0zM1.5 8a6.5 6.5 0 0 1 3.096-5.5H2.5a.5.5 0 0 0 0 1h2A.5.5 0 0 0 5 3V1a.5.5 0 0 0-1 0v1.19A7.483 7.483 0 0 0 0 8a7.483 7.483 0 0 0 4 6.81V14a.5.5 0 0 0 1 0v-2a.5.5 0 0 0-.5-.5h-2a.5.5 0 0 0 0 1h2.096A6.5 6.5 0 0 1 1.5 8zm7-5.5a.5.5 0 0 0-1 0v2a.5.5 0 0 0 .5.5h2a.5.5 0 0 0 0-1h-2.096a6.5 6.5 0 0 1 0 11H9.5a.5.5 0 0 0 0 1h-2a.5.5 0 0 0-.5.5v2a.5.5 0 0 0 1 0v-1.19A7.483 7.483 0 0 0 16 8a7.483 7.483 0 0 0-4-6.81V2a.5.5 0 0 0-1 0v2a.5.5 0 0 0 .5.5h2a.5.5 0 0 0 0-1H11.5a6.5 6.5 0 0 1 3 5.5 6.5 6.5 0 0 1-3 5.5H11a.5.5 0 0 0-.5.5v2a.5.5 0 0 0 1 0v-1.19A7.483 7.483 0 0 0 16 8a7.483 7.483 0 0 0-4-6.81V2a.5.5 0 0 0-1 0v2a.5.5 0 0 0 .5.5h2a.5.5 0 0 0 0-1h-2.096a6.5 6.5 0 0 1-3-5.5z"/></svg>
    </g>
</svg>