<svg xmlns="http://www.w3.org/2000/svg" width="64" height="64" viewBox="0 0 64 64">
        <rect width="64" height="64" fill="#f0f0f0"/>
        <g fill="#333333">
            <svg xmlns="http://www.w3.org/2000/svg" width="64" height="64" fill="currentColor" viewBox="0 0 16 16"><path d="M10.943 4H5.057L5 6h.5c.18-1.096.356-1.192 1.694-1.235l.293-.01v6.09c0 .47-.1.582-.898.655v.5H9.41v-.5c-.803-.073-.903-.184-.903-.654V4.755l.298.01c1.338.043 1.514.14 1.694 1.235h.5l-.057-2z"/><path d="M14 14V4.5L9.5 0H4a2 2 0 0 0-2 2v12a2 2 0 0 0 2 2h8a2 2 0 0 0 2-2zM9.5 3A1.5 1.5 0 0 0 11 4.5h2V14a1 1 0 0 1-1 1H4a1 1 0 0 1-1-1V2a1 1 0 0 1 1-1h5.5v2z"/></svg>
        </g>
    </svg>